<svg viewBox="0 0 24 24" xml:space="preserve" style="clip-rule:evenodd;fill-rule:evenodd;stroke-linejoin:round;stroke-miterlimit:2" xmlns="http://www.w3.org/2000/svg"><path d="M22.514641 6.3946124c-.37752.0036-.75216.150958-1.03176.445194l-2.97264 3.047723-2.0616 2.1038136-1.27944 1.309422c-.82632.861831-1.9716 1.346624-3.16536 1.339905-1.05792.0043-2.0805613-.383515-2.8689605-1.088867L7.0884 15.655377c1.35504 1.236705 3.075601 1.929337 4.915441 1.929337 2.001601 0 3.87072-.779991 5.26872-2.222614l1.23768-1.265743 2.05992-2.105014 3.018-3.0902016c.5568-.584873.54312-1.521342-.03024-2.090135-.28728-.279596-.66624-.420234-1.04328-.416394zm-10.5108.0045c-1.985521-.010771-3.890881.792982-5.268961 2.222403L2.1275999 13.345885.42096003 15.099064c-.55944003.573593-.56016003 1.516301.0288 2.075255.57359997.559673 1.51607987.558713 2.07503987-.03L5.49744 14.097798l2.06136-2.105014 1.27968-1.309663c.8260795-.8618306 1.971601-1.3468646 3.165361-1.3399046 1.07472 0 2.0604.383516 2.8704 1.0900676l2.04504-2.1050136c-1.35432-1.236466-3.0756-1.927658-4.91544-1.927658zm-10.739281.006c-.30744002.044699-.59279997.187257-.81335997.405893C.16320003 7.0850834 0 7.4659584 0 7.8631534c0 .383275.15168003.75095.42096003 1.023107L1.9067999 10.431843 3.95328 8.3117084l-1.4270401-1.470462c-.3247199-.341276-.7956-.503994-1.2616799-.436075Zm20.851202 7.1768706-2.04504 2.118694 1.412159 1.457022c.55968.588713 1.48536.604313 2.07504.03.282481-.280317.44184-.662391.44208-1.060307 0-.367676-.13224-.75047-.41184-1.029828z" style="fill-rule:nonzero;stroke-width:.239999"/></svg>
